<?xml version="1.0" encoding="UTF-8" standalone="no"?>
<!DOCTYPE svg PUBLIC "-//W3C//DTD SVG 1.1//EN"
 "http://www.w3.org/Graphics/SVG/1.1/DTD/svg11.dtd">
<!-- Generated by graphviz version 2.43.0 (0)
 -->
<!-- Title: one Pages: 1 -->
<svg width="700pt" height="972pt"
 viewBox="0.00 0.00 699.83 972.35" xmlns="http://www.w3.org/2000/svg" xmlns:xlink="http://www.w3.org/1999/xlink">
<g id="graph0" class="graph" transform="scale(1 1) rotate(0) translate(4 968.35)">
<title>one</title>
<polygon fill="white" stroke="transparent" points="-4,4 -4,-968.35 695.83,-968.35 695.83,4 -4,4"/>
<!-- From_any_M_state -->
<g id="node1" class="node">
<title>From_any_M_state</title>
<ellipse fill="none" stroke="black" cx="430.83" cy="-937.48" rx="60.21" ry="26.74"/>
<text text-anchor="middle" x="430.83" y="-941.28" font-family="Georgia" font-size="14.00">From any</text>
<text text-anchor="middle" x="430.83" y="-926.28" font-family="Georgia" font-size="14.00">M_state</text>
</g>
<!-- STANDBY_DEEP_FS -->
<g id="node2" class="node">
<title>STANDBY_DEEP_FS</title>
<ellipse fill="none" stroke="black" cx="70.83" cy="-759.74" rx="60.62" ry="26.74"/>
<text text-anchor="middle" x="70.83" y="-763.54" font-family="Georgia" font-size="14.00">STANDBY</text>
<text text-anchor="middle" x="70.83" y="-748.54" font-family="Georgia" font-size="14.00">DEEP&#45;FS</text>
</g>
<!-- From_any_M_state&#45;&gt;STANDBY_DEEP_FS -->
<g id="edge3" class="edge">
<title>From_any_M_state&#45;&gt;STANDBY_DEEP_FS</title>
<path fill="none" stroke="black" d="M371.09,-934.27C276.8,-930.03 98.27,-918.74 40.83,-892.61 9.34,-878.28 -8.8,-855.4 4.83,-823.61 10.44,-810.5 20.29,-798.83 30.68,-789.21"/>
<polygon fill="black" stroke="black" points="33.06,-791.78 38.3,-782.57 28.46,-786.5 33.06,-791.78"/>
<text text-anchor="middle" x="74.83" y="-837.91" font-family="Georgia" font-size="14.00">WAKE1=WAKE2=0</text>
</g>
<!-- Power_Down -->
<g id="node3" class="node">
<title>Power_Down</title>
<polygon fill="none" stroke="black" points="483.83,-859.61 377.83,-859.61 377.83,-823.61 483.83,-823.61 483.83,-859.61"/>
<text text-anchor="middle" x="430.83" y="-837.91" font-family="Georgia" font-size="14.00">Power Down</text>
</g>
<!-- From_any_M_state&#45;&gt;Power_Down -->
<g id="edge1" class="edge">
<title>From_any_M_state&#45;&gt;Power_Down</title>
<path fill="none" stroke="black" d="M430.83,-910.58C430.83,-897.94 430.83,-882.75 430.83,-869.93"/>
<polygon fill="black" stroke="black" points="434.33,-869.83 430.83,-859.83 427.33,-869.83 434.33,-869.83"/>
<text text-anchor="middle" x="561.33" y="-881.41" font-family="Georgia" font-size="14.00">PORB_MAIN=0 or VBOS&lt;VBOS_por</text>
</g>
<!-- DEEP_FS -->
<g id="node4" class="node">
<title>DEEP_FS</title>
<ellipse fill="none" stroke="black" cx="206.83" cy="-841.61" rx="53.09" ry="18"/>
<text text-anchor="middle" x="206.83" y="-837.91" font-family="Georgia" font-size="14.00">DEEP&#45;FS</text>
</g>
<!-- From_any_M_state&#45;&gt;DEEP_FS -->
<g id="edge2" class="edge">
<title>From_any_M_state&#45;&gt;DEEP_FS</title>
<path fill="none" stroke="black" d="M370.99,-933.92C268.66,-928.94 68.93,-916.27 47.83,-892.61 43.39,-887.63 43.59,-882.75 47.83,-877.61 74.31,-845.44 99.17,-868.73 139.83,-859.61 145.17,-858.41 150.74,-857.1 156.28,-855.75"/>
<polygon fill="black" stroke="black" points="157.3,-859.1 166.17,-853.31 155.62,-852.31 157.3,-859.1"/>
<text text-anchor="middle" x="237.33" y="-881.41" font-family="Georgia" font-size="14.00">VPRE_FB_OV or (VPREGx_TSD and OTP_CONF_TSD)</text>
</g>
<!-- STANDBY -->
<g id="node5" class="node">
<title>STANDBY</title>
<ellipse fill="none" stroke="black" cx="419.83" cy="-759.74" rx="55.79" ry="18"/>
<text text-anchor="middle" x="419.83" y="-756.04" font-family="Georgia" font-size="14.00">STANDBY</text>
</g>
<!-- Power_Down&#45;&gt;STANDBY -->
<g id="edge5" class="edge">
<title>Power_Down&#45;&gt;STANDBY</title>
<path fill="none" stroke="black" d="M428.44,-823.28C427.02,-812.95 425.18,-799.61 423.57,-787.91"/>
<polygon fill="black" stroke="black" points="427,-787.19 422.17,-777.76 420.07,-788.14 427,-787.19"/>
</g>
<!-- DEEP_FS&#45;&gt;STANDBY_DEEP_FS -->
<g id="edge4" class="edge">
<title>DEEP_FS&#45;&gt;STANDBY_DEEP_FS</title>
<path fill="none" stroke="black" d="M181.25,-825.58C162.65,-814.66 137,-799.6 115.11,-786.74"/>
<polygon fill="black" stroke="black" points="116.7,-783.62 106.3,-781.57 113.15,-789.65 116.7,-783.62"/>
</g>
<!-- VPRE_ON -->
<g id="node7" class="node">
<title>VPRE_ON</title>
<ellipse fill="none" stroke="black" cx="330.83" cy="-565.91" rx="55.49" ry="18"/>
<text text-anchor="middle" x="330.83" y="-562.21" font-family="Georgia" font-size="14.00">VPRE ON</text>
</g>
<!-- DEEP_FS&#45;&gt;VPRE_ON -->
<g id="edge9" class="edge">
<title>DEEP_FS&#45;&gt;VPRE_ON</title>
<path fill="none" stroke="black" d="M208.31,-823.57C212.36,-784.78 226.31,-688.04 268.83,-620.91 276.62,-608.61 288.04,-597.54 298.97,-588.67"/>
<polygon fill="black" stroke="black" points="301.39,-591.23 307.16,-582.34 297.11,-585.69 301.39,-591.23"/>
</g>
<!-- WAIT_FS_SUPPLY -->
<g id="node6" class="node">
<title>WAIT_FS_SUPPLY</title>
<ellipse fill="none" stroke="black" cx="332.83" cy="-658.39" rx="55.31" ry="37.45"/>
<text text-anchor="middle" x="332.83" y="-669.69" font-family="Georgia" font-size="14.00">WAIT FS</text>
<text text-anchor="middle" x="332.83" y="-654.69" font-family="Georgia" font-size="14.00"> &amp; </text>
<text text-anchor="middle" x="332.83" y="-639.69" font-family="Georgia" font-size="14.00">SUPPLY</text>
</g>
<!-- STANDBY&#45;&gt;WAIT_FS_SUPPLY -->
<g id="edge6" class="edge">
<title>STANDBY&#45;&gt;WAIT_FS_SUPPLY</title>
<path fill="none" stroke="black" d="M405.46,-742.33C395.1,-730.51 380.67,-714.02 367.39,-698.86"/>
<polygon fill="black" stroke="black" points="369.81,-696.31 360.59,-691.09 364.54,-700.92 369.81,-696.31"/>
</g>
<!-- WAIT_FS_SUPPLY&#45;&gt;VPRE_ON -->
<g id="edge7" class="edge">
<title>WAIT_FS_SUPPLY&#45;&gt;VPRE_ON</title>
<path fill="none" stroke="black" d="M332.02,-620.85C331.82,-611.89 331.61,-602.45 331.43,-594.01"/>
<polygon fill="black" stroke="black" points="334.92,-593.9 331.2,-583.98 327.93,-594.06 334.92,-593.9"/>
</g>
<!-- VBOOST_ON -->
<g id="node8" class="node">
<title>VBOOST_ON</title>
<ellipse fill="none" stroke="black" cx="330.83" cy="-484.04" rx="55.31" ry="26.74"/>
<text text-anchor="middle" x="330.83" y="-487.84" font-family="Georgia" font-size="14.00">VBOOST</text>
<text text-anchor="middle" x="330.83" y="-472.84" font-family="Georgia" font-size="14.00">ON</text>
</g>
<!-- VPRE_ON&#45;&gt;VBOOST_ON -->
<!-- I am node A -->
<g id="edge8" class="edge">
<title>VPRE_ON&#45;&gt;VBOOST_ON</title>
<path fill="none" stroke="black" d="M330.83,-547.58C330.83,-539.85 330.83,-530.43 330.83,-521.27"/>
<polygon fill="black" stroke="black" points="334.33,-521.15 330.83,-511.15 327.33,-521.15 334.33,-521.15"/>
</g>
<!-- VREGx_PWR_UP -->
<g id="node9" class="node">
<title>VREGx_PWR_UP</title>
<ellipse fill="none" stroke="black" cx="330.83" cy="-393.3" rx="56.64" ry="26.74"/>
<text text-anchor="middle" x="330.83" y="-397.1" font-family="Georgia" font-size="14.00">VREGx</text>
<text text-anchor="middle" x="330.83" y="-382.1" font-family="Georgia" font-size="14.00">PWR_UP</text>
</g>
<!-- VBOOST_ON&#45;&gt;VREGx_PWR_UP -->
<g id="edge10" class="edge">
<title>VBOOST_ON&#45;&gt;VREGx_PWR_UP</title>
<path fill="none" stroke="black" d="M330.83,-456.9C330.83,-448.59 330.83,-439.26 330.83,-430.38"/>
<polygon fill="black" stroke="black" points="334.33,-430.26 330.83,-420.26 327.33,-430.26 334.33,-430.26"/>
</g>
<!-- NORMAL_M -->
<g id="node10" class="node">
<title>NORMAL_M</title>
<ellipse fill="none" stroke="black" cx="357.83" cy="-311.43" rx="67.69" ry="18"/>
<text text-anchor="middle" x="357.83" y="-307.73" font-family="Georgia" font-size="14.00">NORMAL_M</text>
</g>
<!-- VREGx_PWR_UP&#45;&gt;NORMAL_M -->
<g id="edge11" class="edge">
<title>VREGx_PWR_UP&#45;&gt;NORMAL_M</title>
<path fill="none" stroke="black" d="M339.52,-366.59C342.44,-357.94 345.72,-348.26 348.67,-339.51"/>
<polygon fill="black" stroke="black" points="352.08,-340.36 351.97,-329.77 345.45,-338.12 352.08,-340.36"/>
</g>
<!-- NORMAL_M&#45;&gt;STANDBY -->
<g id="edge16" class="edge">
<title>NORMAL_M&#45;&gt;STANDBY</title>
<path fill="none" stroke="black" d="M379.09,-328.66C395.65,-343.29 415.83,-366.43 415.83,-392.3 415.83,-659.39 415.83,-659.39 415.83,-659.39 415.83,-683.71 417.04,-711.36 418.13,-731.3"/>
<polygon fill="black" stroke="black" points="414.65,-731.73 418.71,-741.52 421.64,-731.33 414.65,-731.73"/>
</g>
<!-- VREGx_PWR_DOWN -->
<g id="node11" class="node">
<title>VREGx_PWR_DOWN</title>
<ellipse fill="none" stroke="black" cx="364.83" cy="-218.96" rx="47.25" ry="37.45"/>
<text text-anchor="middle" x="364.83" y="-230.26" font-family="Georgia" font-size="14.00">VREGx</text>
<text text-anchor="middle" x="364.83" y="-215.26" font-family="Georgia" font-size="14.00">PWR_</text>
<text text-anchor="middle" x="364.83" y="-200.26" font-family="Georgia" font-size="14.00">DOWN</text>
</g>
<!-- NORMAL_M&#45;&gt;VREGx_PWR_DOWN -->
<g id="edge12" class="edge">
<title>NORMAL_M&#45;&gt;VREGx_PWR_DOWN</title>
<path fill="none" stroke="black" d="M359.14,-293.42C359.74,-285.67 360.48,-276.07 361.23,-266.41"/>
<polygon fill="black" stroke="black" points="364.73,-266.63 362.01,-256.39 357.75,-266.09 364.73,-266.63"/>
</g>
<!-- VBOOST_OFF -->
<g id="node12" class="node">
<title>VBOOST_OFF</title>
<ellipse fill="none" stroke="black" cx="369.83" cy="-117.61" rx="55.31" ry="26.74"/>
<text text-anchor="middle" x="369.83" y="-121.41" font-family="Georgia" font-size="14.00">VBOOST</text>
<text text-anchor="middle" x="369.83" y="-106.41" font-family="Georgia" font-size="14.00">OFF</text>
</g>
<!-- VREGx_PWR_DOWN&#45;&gt;VBOOST_OFF -->
<g id="edge13" class="edge">
<title>VREGx_PWR_DOWN&#45;&gt;VBOOST_OFF</title>
<path fill="none" stroke="black" d="M366.67,-181.25C367.11,-172.6 367.57,-163.39 368.01,-154.77"/>
<polygon fill="black" stroke="black" points="371.51,-154.79 368.52,-144.63 364.52,-154.44 371.51,-154.79"/>
</g>
<!-- VPRE_OFF -->
<g id="node13" class="node">
<title>VPRE_OFF</title>
<ellipse fill="none" stroke="black" cx="411.83" cy="-26.87" rx="40.11" ry="26.74"/>
<text text-anchor="middle" x="411.83" y="-30.67" font-family="Georgia" font-size="14.00">VPRE</text>
<text text-anchor="middle" x="411.83" y="-15.67" font-family="Georgia" font-size="14.00">OFF</text>
</g>
<!-- VBOOST_OFF&#45;&gt;VPRE_OFF -->
<g id="edge14" class="edge">
<title>VBOOST_OFF&#45;&gt;VPRE_OFF</title>
<path fill="none" stroke="black" d="M381.97,-90.94C386.23,-81.96 391.07,-71.72 395.6,-62.15"/>
<polygon fill="black" stroke="black" points="398.88,-63.4 400,-52.87 392.55,-60.41 398.88,-63.4"/>
</g>
<!-- VPRE_OFF&#45;&gt;STANDBY -->
<g id="edge15" class="edge">
<title>VPRE_OFF&#45;&gt;STANDBY</title>
<path fill="none" stroke="black" d="M429.88,-51.32C441.27,-68.45 453.83,-92.75 453.83,-116.61 453.83,-659.39 453.83,-659.39 453.83,-659.39 453.83,-685.28 443.36,-713.02 434.05,-732.58"/>
<polygon fill="black" stroke="black" points="430.81,-731.24 429.48,-741.75 437.07,-734.36 430.81,-731.24"/>
</g>
</g>
</svg>
