<?xml version="1.0" encoding="UTF-8" standalone="no"?>
<!DOCTYPE svg PUBLIC "-//W3C//DTD SVG 1.1//EN"
 "http://www.w3.org/Graphics/SVG/1.1/DTD/svg11.dtd">
<!-- Generated by graphviz version 2.43.0 (0)
 -->
<!-- Title: Power_sequencing Pages: 1 -->
<svg width="325pt" height="790pt"
 viewBox="0.00 0.00 324.95 790.48" xmlns="http://www.w3.org/2000/svg" xmlns:xlink="http://www.w3.org/1999/xlink">
<g id="graph0" class="graph" transform="scale(1 1) rotate(0) translate(4 786.48)">
<title>Power_sequencing</title>
<polygon fill="white" stroke="transparent" points="-4,4 -4,-786.48 320.95,-786.48 320.95,4 -4,4"/>
<!-- A00 -->
<g id="node1" class="node">
<title>A00</title>
<ellipse fill="none" stroke="black" cx="74.95" cy="-755.61" rx="74.91" ry="26.74"/>
<text text-anchor="middle" x="74.95" y="-759.41" font-family="Georgia" font-size="14.00">From</text>
<text text-anchor="middle" x="74.95" y="-744.41" font-family="Georgia" font-size="14.00">VBOOST ON</text>
</g>
<!-- A01 -->
<g id="node2" class="node">
<title>A01</title>
<ellipse fill="none" stroke="black" cx="74.95" cy="-644.74" rx="46.29" ry="18"/>
<text text-anchor="middle" x="74.95" y="-641.04" font-family="Georgia" font-size="14.00">SLOT_0</text>
</g>
<!-- A00&#45;&gt;A01 -->
<g id="edge1" class="edge">
<title>A00&#45;&gt;A01</title>
<path fill="none" stroke="black" d="M74.95,-728.53C74.95,-711.81 74.95,-690.14 74.95,-673.17"/>
<polygon fill="black" stroke="black" points="78.45,-672.79 74.95,-662.79 71.45,-672.79 78.45,-672.79"/>
<text text-anchor="middle" x="195.95" y="-699.54" font-family="Georgia" font-size="14.00">VBOOST&gt;VBOOST_uvh </text>
<text text-anchor="middle" x="195.95" y="-684.54" font-family="Georgia" font-size="14.00"> and VBOOST_soft_start complete</text>
</g>
<!-- A02 -->
<g id="node3" class="node">
<title>A02</title>
<ellipse fill="none" stroke="black" cx="74.95" cy="-557.74" rx="46.29" ry="18"/>
<text text-anchor="middle" x="74.95" y="-554.04" font-family="Georgia" font-size="14.00">SLOT_1</text>
</g>
<!-- A01&#45;&gt;A02 -->
<g id="edge2" class="edge">
<title>A01&#45;&gt;A02</title>
<path fill="none" stroke="black" d="M74.95,-626.54C74.95,-614.9 74.95,-599.29 74.95,-585.98"/>
<polygon fill="black" stroke="black" points="78.45,-585.92 74.95,-575.92 71.45,-585.92 78.45,-585.92"/>
<text text-anchor="middle" x="91.45" y="-597.54" font-family="Georgia" font-size="14.00">tslot</text>
</g>
<!-- A03 -->
<g id="node4" class="node">
<title>A03</title>
<ellipse fill="none" stroke="black" cx="74.95" cy="-470.74" rx="46.29" ry="18"/>
<text text-anchor="middle" x="74.95" y="-467.04" font-family="Georgia" font-size="14.00">SLOT_2</text>
</g>
<!-- A02&#45;&gt;A03 -->
<g id="edge3" class="edge">
<title>A02&#45;&gt;A03</title>
<path fill="none" stroke="black" d="M74.95,-539.54C74.95,-527.9 74.95,-512.29 74.95,-498.98"/>
<polygon fill="black" stroke="black" points="78.45,-498.92 74.95,-488.92 71.45,-498.92 78.45,-498.92"/>
<text text-anchor="middle" x="91.45" y="-510.54" font-family="Georgia" font-size="14.00">tslot</text>
</g>
<!-- A04 -->
<g id="node5" class="node">
<title>A04</title>
<ellipse fill="none" stroke="black" cx="74.95" cy="-383.74" rx="46.29" ry="18"/>
<text text-anchor="middle" x="74.95" y="-380.04" font-family="Georgia" font-size="14.00">SLOT_3</text>
</g>
<!-- A03&#45;&gt;A04 -->
<g id="edge4" class="edge">
<title>A03&#45;&gt;A04</title>
<path fill="none" stroke="black" d="M74.95,-452.54C74.95,-440.9 74.95,-425.29 74.95,-411.98"/>
<polygon fill="black" stroke="black" points="78.45,-411.92 74.95,-401.92 71.45,-411.92 78.45,-411.92"/>
<text text-anchor="middle" x="91.45" y="-423.54" font-family="Georgia" font-size="14.00">tslot</text>
</g>
<!-- A05 -->
<g id="node6" class="node">
<title>A05</title>
<ellipse fill="none" stroke="black" cx="74.95" cy="-296.74" rx="46.29" ry="18"/>
<text text-anchor="middle" x="74.95" y="-293.04" font-family="Georgia" font-size="14.00">SLOT_4</text>
</g>
<!-- A04&#45;&gt;A05 -->
<g id="edge5" class="edge">
<title>A04&#45;&gt;A05</title>
<path fill="none" stroke="black" d="M74.95,-365.54C74.95,-353.9 74.95,-338.29 74.95,-324.98"/>
<polygon fill="black" stroke="black" points="78.45,-324.92 74.95,-314.92 71.45,-324.92 78.45,-324.92"/>
<text text-anchor="middle" x="91.45" y="-336.54" font-family="Georgia" font-size="14.00">tslot</text>
</g>
<!-- A06 -->
<g id="node7" class="node">
<title>A06</title>
<ellipse fill="none" stroke="black" cx="74.95" cy="-209.74" rx="46.29" ry="18"/>
<text text-anchor="middle" x="74.95" y="-206.04" font-family="Georgia" font-size="14.00">SLOT_5</text>
</g>
<!-- A05&#45;&gt;A06 -->
<g id="edge6" class="edge">
<title>A05&#45;&gt;A06</title>
<path fill="none" stroke="black" d="M74.95,-278.54C74.95,-266.9 74.95,-251.29 74.95,-237.98"/>
<polygon fill="black" stroke="black" points="78.45,-237.92 74.95,-227.92 71.45,-237.92 78.45,-237.92"/>
<text text-anchor="middle" x="91.45" y="-249.54" font-family="Georgia" font-size="14.00">tslot</text>
</g>
<!-- A07 -->
<g id="node8" class="node">
<title>A07</title>
<ellipse fill="none" stroke="black" cx="74.95" cy="-122.74" rx="46.29" ry="18"/>
<text text-anchor="middle" x="74.95" y="-119.04" font-family="Georgia" font-size="14.00">SLOT_6</text>
</g>
<!-- A06&#45;&gt;A07 -->
<g id="edge7" class="edge">
<title>A06&#45;&gt;A07</title>
<path fill="none" stroke="black" d="M74.95,-191.54C74.95,-179.9 74.95,-164.29 74.95,-150.98"/>
<polygon fill="black" stroke="black" points="78.45,-150.92 74.95,-140.92 71.45,-150.92 78.45,-150.92"/>
<text text-anchor="middle" x="91.45" y="-162.54" font-family="Georgia" font-size="14.00">tslot</text>
</g>
<!-- A08 -->
<g id="node9" class="node">
<title>A08</title>
<ellipse fill="none" stroke="black" cx="74.95" cy="-26.87" rx="73.58" ry="26.74"/>
<text text-anchor="middle" x="74.95" y="-30.67" font-family="Georgia" font-size="14.00">To</text>
<text text-anchor="middle" x="74.95" y="-15.67" font-family="Georgia" font-size="14.00">NORMAL_M</text>
</g>
<!-- A07&#45;&gt;A08 -->
<g id="edge8" class="edge">
<title>A07&#45;&gt;A08</title>
<path fill="none" stroke="black" d="M74.95,-104.52C74.95,-93.22 74.95,-78.01 74.95,-64.12"/>
<polygon fill="black" stroke="black" points="78.45,-63.84 74.95,-53.84 71.45,-63.84 78.45,-63.84"/>
<text text-anchor="middle" x="91.45" y="-75.54" font-family="Georgia" font-size="14.00">tslot</text>
</g>
</g>
</svg>
