<?xml version="1.0" encoding="UTF-8" standalone="no"?>
<!DOCTYPE svg PUBLIC "-//W3C//DTD SVG 1.1//EN"
 "http://www.w3.org/Graphics/SVG/1.1/DTD/svg11.dtd">
<!-- Generated by graphviz version 2.43.0 (0)
 -->
<!-- Title: finite_state_machine Pages: 1 -->
<svg width="769pt" height="2318pt"
 viewBox="0.00 0.00 769.00 2318.02" xmlns="http://www.w3.org/2000/svg" xmlns:xlink="http://www.w3.org/1999/xlink">
<g id="graph0" class="graph" transform="scale(1 1) rotate(0) translate(4 2314.02)">
<title>finite_state_machine</title>
<polygon fill="white" stroke="transparent" points="-4,4 -4,-2314.02 765,-2314.02 765,4 -4,4"/>
<g id="clust1" class="cluster">
<title>cluster_a</title>
<polygon fill="none" stroke="black" points="8,-440.34 8,-2302.02 284,-2302.02 284,-440.34 8,-440.34"/>
</g>
<g id="clust2" class="cluster">
<title>cluster_b</title>
<polygon fill="none" stroke="black" points="409,-8 409,-2301.31 753,-2301.31 753,-8 409,-8"/>
</g>
<!-- A00 -->
<g id="node1" class="node">
<title>A00</title>
<ellipse fill="none" stroke="black" cx="211" cy="-2050.13" rx="59.59" ry="59.59"/>
<text text-anchor="middle" x="211" y="-2046.43" font-family="Georgia" font-size="14.00">VPRE OFF</text>
</g>
<!-- A12 -->
<g id="node6" class="node">
<title>A12</title>
<ellipse fill="none" stroke="black" cx="108" cy="-1867.05" rx="55.79" ry="55.79"/>
<text text-anchor="middle" x="108" y="-1863.35" font-family="Georgia" font-size="14.00">STANDBY</text>
</g>
<!-- A00&#45;&gt;A12 -->
<g id="edge5" class="edge">
<title>A00&#45;&gt;A12</title>
<path fill="none" stroke="black" d="M181.76,-1997.73C168.84,-1975.01 153.6,-1948.23 140.34,-1924.92"/>
<polygon fill="black" stroke="black" points="143.35,-1923.13 135.37,-1916.17 137.27,-1926.59 143.35,-1923.13"/>
</g>
<!-- A01 -->
<g id="node2" class="node">
<title>A01</title>
<ellipse fill="none" stroke="black" cx="161" cy="-521.78" rx="73.39" ry="73.39"/>
<text text-anchor="middle" x="161" y="-518.08" font-family="Georgia" font-size="14.00">VBOOST OFF</text>
</g>
<!-- A01&#45;&gt;A00 -->
<g id="edge4" class="edge">
<title>A01&#45;&gt;A00</title>
<path fill="none" stroke="black" d="M189.45,-589.8C194.11,-603.3 198.29,-617.54 201,-631.22 224.27,-748.92 211,-781.01 211,-900.98 211,-1663.76 211,-1663.76 211,-1663.76 211,-1774.37 211,-1902.84 211,-1979.97"/>
<polygon fill="black" stroke="black" points="207.5,-1980.04 211,-1990.04 214.5,-1980.04 207.5,-1980.04"/>
</g>
<!-- A02 -->
<g id="node3" class="node">
<title>A02</title>
<ellipse fill="none" stroke="black" cx="116" cy="-706.88" rx="75.82" ry="75.82"/>
<text text-anchor="middle" x="116" y="-710.68" font-family="Georgia" font-size="14.00">VREGx</text>
<text text-anchor="middle" x="116" y="-695.68" font-family="Georgia" font-size="14.00">PWR_DOWN</text>
</g>
<!-- A02&#45;&gt;A01 -->
<g id="edge3" class="edge">
<title>A02&#45;&gt;A01</title>
<path fill="none" stroke="black" d="M133.85,-633.25C136.28,-623.37 138.78,-613.18 141.24,-603.17"/>
<polygon fill="black" stroke="black" points="144.7,-603.78 143.69,-593.23 137.9,-602.11 144.7,-603.78"/>
</g>
<!-- A10 -->
<g id="node4" class="node">
<title>A10</title>
<ellipse fill="none" stroke="black" cx="216" cy="-2233.21" rx="60.21" ry="60.21"/>
<text text-anchor="middle" x="216" y="-2237.01" font-family="Georgia" font-size="14.00">From any</text>
<text text-anchor="middle" x="216" y="-2222.01" font-family="Georgia" font-size="14.00">M_state</text>
</g>
<!-- A11 -->
<g id="node5" class="node">
<title>A11</title>
<polygon fill="none" stroke="black" points="133,-2068.13 27,-2068.13 27,-2032.13 133,-2032.13 133,-2068.13"/>
<text text-anchor="middle" x="80" y="-2046.43" font-family="Georgia" font-size="14.00">Power Down</text>
</g>
<!-- A10&#45;&gt;A11 -->
<g id="edge8" class="edge">
<title>A10&#45;&gt;A11</title>
<path fill="none" stroke="black" d="M179.22,-2185.15C167.25,-2169.69 153.97,-2152.38 142,-2136.4 127.04,-2116.44 110.45,-2093.58 98.19,-2076.55"/>
<polygon fill="black" stroke="black" points="100.89,-2074.3 92.21,-2068.22 95.2,-2078.39 100.89,-2074.3"/>
</g>
<!-- A20 -->
<g id="node32" class="node">
<title>A20</title>
<ellipse fill="none" stroke="black" cx="345" cy="-2050.13" rx="53.09" ry="53.09"/>
<text text-anchor="middle" x="345" y="-2046.43" font-family="Georgia" font-size="14.00">DEEP&#45;FS</text>
</g>
<!-- A10&#45;&gt;A20 -->
<g id="edge6" class="edge">
<title>A10&#45;&gt;A20</title>
<path fill="none" stroke="black" d="M252.41,-2184.83C263.97,-2169.51 276.69,-2152.35 288,-2136.4 295.4,-2125.97 303.13,-2114.68 310.42,-2103.84"/>
<polygon fill="black" stroke="black" points="313.51,-2105.52 316.17,-2095.26 307.7,-2101.62 313.51,-2105.52"/>
</g>
<!-- A11&#45;&gt;A12 -->
<g id="edge9" class="edge">
<title>A11&#45;&gt;A12</title>
<path fill="none" stroke="black" d="M82.63,-2032.1C86.13,-2009.5 92.49,-1968.33 97.97,-1932.9"/>
<polygon fill="black" stroke="black" points="101.5,-1933.01 99.57,-1922.59 94.58,-1931.94 101.5,-1933.01"/>
</g>
<!-- A13 -->
<g id="node7" class="node">
<title>A13</title>
<ellipse fill="none" stroke="black" cx="88" cy="-1662.76" rx="55.31" ry="55.31"/>
<text text-anchor="middle" x="88" y="-1666.56" font-family="Georgia" font-size="14.00">WAIT FS</text>
<text text-anchor="middle" x="88" y="-1651.56" font-family="Georgia" font-size="14.00">SUPPLY</text>
</g>
<!-- A12&#45;&gt;A13 -->
<g id="edge10" class="edge">
<title>A12&#45;&gt;A13</title>
<path fill="none" stroke="black" d="M102.59,-1811.31C100.04,-1785.58 96.99,-1754.73 94.34,-1727.91"/>
<polygon fill="black" stroke="black" points="97.81,-1727.46 93.35,-1717.85 90.85,-1728.14 97.81,-1727.46"/>
</g>
<!-- A14 -->
<g id="node8" class="node">
<title>A14</title>
<ellipse fill="none" stroke="black" cx="88" cy="-1464.04" rx="55.49" ry="55.49"/>
<text text-anchor="middle" x="88" y="-1460.34" font-family="Georgia" font-size="14.00">VPRE ON</text>
</g>
<!-- A13&#45;&gt;A14 -->
<g id="edge11" class="edge">
<title>A13&#45;&gt;A14</title>
<path fill="none" stroke="black" d="M88,-1607.49C88,-1583.4 88,-1554.86 88,-1529.68"/>
<polygon fill="black" stroke="black" points="91.5,-1529.48 88,-1519.48 84.5,-1529.48 91.5,-1529.48"/>
</g>
<!-- A15 -->
<g id="node9" class="node">
<title>A15</title>
<ellipse fill="none" stroke="black" cx="88" cy="-1268.85" rx="55.31" ry="55.31"/>
<text text-anchor="middle" x="88" y="-1272.65" font-family="Georgia" font-size="14.00">VBOOST</text>
<text text-anchor="middle" x="88" y="-1257.65" font-family="Georgia" font-size="14.00">ON</text>
</g>
<!-- A14&#45;&gt;A15 -->
<g id="edge12" class="edge">
<title>A14&#45;&gt;A15</title>
<path fill="none" stroke="black" d="M88,-1408.71C88,-1385.56 88,-1358.39 88,-1334.24"/>
<polygon fill="black" stroke="black" points="91.5,-1334.1 88,-1324.1 84.5,-1334.1 91.5,-1334.1"/>
</g>
<!-- A16 -->
<g id="node10" class="node">
<title>A16</title>
<ellipse fill="none" stroke="black" cx="88" cy="-1075.16" rx="53.98" ry="53.98"/>
<text text-anchor="middle" x="88" y="-1078.96" font-family="Georgia" font-size="14.00">VREGx</text>
<text text-anchor="middle" x="88" y="-1063.96" font-family="Georgia" font-size="14.00">PER_UP</text>
</g>
<!-- A15&#45;&gt;A16 -->
<g id="edge13" class="edge">
<title>A15&#45;&gt;A16</title>
<path fill="none" stroke="black" d="M88,-1213.69C88,-1190.53 88,-1163.35 88,-1139.29"/>
<polygon fill="black" stroke="black" points="91.5,-1139.2 88,-1129.2 84.5,-1139.2 91.5,-1139.2"/>
</g>
<!-- A17 -->
<g id="node11" class="node">
<title>A17</title>
<ellipse fill="none" stroke="black" cx="116" cy="-901.98" rx="67.69" ry="67.69"/>
<text text-anchor="middle" x="116" y="-898.28" font-family="Georgia" font-size="14.00">NORMAL_M</text>
</g>
<!-- A16&#45;&gt;A17 -->
<g id="edge14" class="edge">
<title>A16&#45;&gt;A17</title>
<path fill="none" stroke="black" d="M96.55,-1021.87C98.77,-1008.29 101.21,-993.39 103.59,-978.86"/>
<polygon fill="black" stroke="black" points="107.06,-979.32 105.22,-968.88 100.15,-978.19 107.06,-979.32"/>
</g>
<!-- A17&#45;&gt;A02 -->
<g id="edge1" class="edge">
<title>A17&#45;&gt;A02</title>
<path fill="none" stroke="black" d="M116,-834.26C116,-820.84 116,-806.56 116,-792.62"/>
<polygon fill="black" stroke="black" points="119.5,-792.55 116,-782.55 112.5,-792.55 119.5,-792.55"/>
</g>
<!-- A17&#45;&gt;A12 -->
<g id="edge2" class="edge">
<title>A17&#45;&gt;A12</title>
<path fill="none" stroke="black" d="M137.77,-966.24C143,-983.9 147.95,-1003.24 151,-1021.42 169.11,-1129.55 162,-1158.22 162,-1267.85 162,-1465.04 162,-1465.04 162,-1465.04 162,-1600.76 183.16,-1638.15 152,-1770.24 148.99,-1783.02 144.21,-1796.16 138.89,-1808.45"/>
<polygon fill="black" stroke="black" points="135.65,-1807.11 134.74,-1817.67 142.04,-1809.99 135.65,-1807.11"/>
</g>
<!-- A21 -->
<g id="node12" class="node">
<title>A21</title>
<ellipse fill="none" stroke="black" cx="77" cy="-2233.21" rx="60.62" ry="60.62"/>
<text text-anchor="middle" x="77" y="-2237.01" font-family="Georgia" font-size="14.00">STANDBY</text>
<text text-anchor="middle" x="77" y="-2222.01" font-family="Georgia" font-size="14.00">DEEP&#45;FS</text>
</g>
<!-- A21&#45;&gt;A11 -->
<g id="edge7" class="edge">
<title>A21&#45;&gt;A11</title>
<path fill="none" stroke="black" d="M77.99,-2172.17C78.52,-2140.42 79.14,-2103.01 79.55,-2078.27"/>
<polygon fill="black" stroke="black" points="83.05,-2078.24 79.72,-2068.18 76.05,-2078.13 83.05,-2078.24"/>
</g>
<!-- C00 -->
<g id="node13" class="node">
<title>C00</title>
<ellipse fill="none" stroke="black" cx="662" cy="-901.98" rx="83.38" ry="83.38"/>
<text text-anchor="middle" x="662" y="-913.28" font-family="Georgia" font-size="14.00">From any</text>
<text text-anchor="middle" x="662" y="-898.28" font-family="Georgia" font-size="14.00">FS_state after</text>
<text text-anchor="middle" x="662" y="-883.28" font-family="Georgia" font-size="14.00">&#39;INIT_FS&#39;</text>
</g>
<!-- C18 -->
<g id="node24" class="node">
<title>C18</title>
<ellipse fill="none" stroke="black" cx="580" cy="-706.88" rx="48.19" ry="48.19"/>
<text text-anchor="middle" x="580" y="-703.18" font-family="Georgia" font-size="14.00">INIT_FS</text>
</g>
<!-- C00&#45;&gt;C18 -->
<g id="edge16" class="edge">
<title>C00&#45;&gt;C18</title>
<path fill="none" stroke="black" d="M629.71,-824.94C620.62,-803.54 610.93,-780.72 602.54,-760.97"/>
<polygon fill="black" stroke="black" points="605.67,-759.38 598.54,-751.55 599.23,-762.12 605.67,-759.38"/>
</g>
<!-- C01 -->
<g id="node14" class="node">
<title>C01</title>
<ellipse fill="none" stroke="black" cx="665" cy="-1464.04" rx="53.07" ry="53.07"/>
<text text-anchor="middle" x="665" y="-1467.84" font-family="Georgia" font-size="14.00">ASSERT</text>
<text text-anchor="middle" x="665" y="-1452.84" font-family="Georgia" font-size="14.00">PGOOD</text>
</g>
<!-- C15 -->
<g id="node21" class="node">
<title>C15</title>
<ellipse fill="none" stroke="black" cx="692" cy="-1268.85" rx="49.49" ry="49.49"/>
<text text-anchor="middle" x="692" y="-1272.65" font-family="Georgia" font-size="14.00">WAIT</text>
<text text-anchor="middle" x="692" y="-1257.65" font-family="Georgia" font-size="14.00">ABIST1</text>
</g>
<!-- C01&#45;&gt;C15 -->
<g id="edge18" class="edge">
<title>C01&#45;&gt;C15</title>
<path fill="none" stroke="black" d="M672.24,-1411.27C675.82,-1385.6 680.17,-1354.5 683.87,-1328.01"/>
<polygon fill="black" stroke="black" points="687.34,-1328.5 685.26,-1318.11 680.4,-1327.53 687.34,-1328.5"/>
</g>
<!-- C02 -->
<g id="node15" class="node">
<title>C02</title>
<ellipse fill="none" stroke="black" cx="638" cy="-1662.76" rx="107.46" ry="107.46"/>
<text text-anchor="middle" x="638" y="-1674.06" font-family="Georgia" font-size="14.00">From any FS_state</text>
<text text-anchor="middle" x="638" y="-1659.06" font-family="Georgia" font-size="14.00">after &#39;ABIST1&#39;</text>
<text text-anchor="middle" x="638" y="-1644.06" font-family="Georgia" font-size="14.00">include &#39;RSTB&#39;</text>
</g>
<!-- C02&#45;&gt;C01 -->
<g id="edge17" class="edge">
<title>C02&#45;&gt;C01</title>
<path fill="none" stroke="black" d="M652.49,-1556.2C653.87,-1546.16 655.23,-1536.22 656.52,-1526.8"/>
<polygon fill="black" stroke="black" points="660,-1527.19 657.89,-1516.81 653.07,-1526.24 660,-1527.19"/>
</g>
<!-- C10 -->
<g id="node16" class="node">
<title>C10</title>
<ellipse fill="none" stroke="black" cx="576" cy="-2233.21" rx="60.21" ry="60.21"/>
<text text-anchor="middle" x="576" y="-2237.01" font-family="Georgia" font-size="14.00">From any</text>
<text text-anchor="middle" x="576" y="-2222.01" font-family="Georgia" font-size="14.00">M_state</text>
</g>
<!-- C11 -->
<g id="node17" class="node">
<title>C11</title>
<ellipse fill="none" stroke="black" cx="676" cy="-2050.13" rx="68.79" ry="68.79"/>
<text text-anchor="middle" x="676" y="-2046.43" font-family="Georgia" font-size="14.00">Power Down</text>
</g>
<!-- C10&#45;&gt;C11 -->
<g id="edge19" class="edge">
<title>C10&#45;&gt;C11</title>
<path fill="none" stroke="black" d="M604.66,-2180.32C615.11,-2161.38 627.1,-2139.67 638.23,-2119.52"/>
<polygon fill="black" stroke="black" points="641.34,-2121.14 643.11,-2110.69 635.21,-2117.75 641.34,-2121.14"/>
</g>
<!-- C10&#45;&gt;A20 -->
<g id="edge15" class="edge">
<title>C10&#45;&gt;A20</title>
<path fill="none" stroke="black" d="M520.76,-2209.04C485.13,-2192.32 439.23,-2167.29 405,-2136.4 394.93,-2127.31 385.62,-2116.25 377.48,-2105.13"/>
<polygon fill="black" stroke="black" points="380.13,-2102.81 371.5,-2096.66 374.41,-2106.84 380.13,-2102.81"/>
</g>
<!-- C12 -->
<g id="node18" class="node">
<title>C12</title>
<ellipse fill="none" stroke="black" cx="503" cy="-1867.05" rx="60.62" ry="60.62"/>
<text text-anchor="middle" x="503" y="-1870.85" font-family="Georgia" font-size="14.00">STANDBY</text>
<text text-anchor="middle" x="503" y="-1855.85" font-family="Georgia" font-size="14.00">FS</text>
</g>
<!-- C11&#45;&gt;C12 -->
<g id="edge20" class="edge">
<title>C11&#45;&gt;C12</title>
<path fill="none" stroke="black" d="M630.14,-1998.32C619.66,-1986.91 608.52,-1974.91 598,-1963.86 583.56,-1948.7 567.63,-1932.45 553,-1917.72"/>
<polygon fill="black" stroke="black" points="555.47,-1915.24 545.93,-1910.62 550.51,-1920.18 555.47,-1915.24"/>
</g>
<!-- C13 -->
<g id="node19" class="node">
<title>C13</title>
<ellipse fill="none" stroke="black" cx="474" cy="-1662.76" rx="38.99" ry="38.99"/>
<text text-anchor="middle" x="474" y="-1659.06" font-family="Georgia" font-size="14.00">LBIST</text>
</g>
<!-- C12&#45;&gt;C13 -->
<g id="edge21" class="edge">
<title>C12&#45;&gt;C13</title>
<path fill="none" stroke="black" d="M494.49,-1806.73C490.15,-1776.41 484.93,-1740 480.85,-1711.52"/>
<polygon fill="black" stroke="black" points="484.28,-1710.81 479.4,-1701.41 477.35,-1711.81 484.28,-1710.81"/>
</g>
<!-- C14 -->
<g id="node20" class="node">
<title>C14</title>
<ellipse fill="none" stroke="black" cx="524" cy="-1464.04" rx="48.17" ry="48.17"/>
<text text-anchor="middle" x="524" y="-1467.84" font-family="Georgia" font-size="14.00">FS</text>
<text text-anchor="middle" x="524" y="-1452.84" font-family="Georgia" font-size="14.00">READY</text>
</g>
<!-- C13&#45;&gt;C14 -->
<g id="edge22" class="edge">
<title>C13&#45;&gt;C14</title>
<path fill="none" stroke="black" d="M483.4,-1624.76C490.84,-1595.51 501.34,-1554.2 509.8,-1520.92"/>
<polygon fill="black" stroke="black" points="513.28,-1521.43 512.35,-1510.88 506.49,-1519.71 513.28,-1521.43"/>
</g>
<!-- C14&#45;&gt;C15 -->
<g id="edge23" class="edge">
<title>C14&#45;&gt;C15</title>
<path fill="none" stroke="black" d="M563.49,-1436.27C585.95,-1419.74 613.59,-1397.1 634,-1372.79 646.46,-1357.95 657.63,-1340.03 666.76,-1323.34"/>
<polygon fill="black" stroke="black" points="670,-1324.69 671.61,-1314.22 663.82,-1321.4 670,-1324.69"/>
</g>
<!-- C16 -->
<g id="node22" class="node">
<title>C16</title>
<ellipse fill="none" stroke="black" cx="665" cy="-1075.16" rx="45.49" ry="45.49"/>
<text text-anchor="middle" x="665" y="-1071.46" font-family="Georgia" font-size="14.00">ABIST1</text>
</g>
<!-- C15&#45;&gt;C16 -->
<g id="edge24" class="edge">
<title>C15&#45;&gt;C16</title>
<path fill="none" stroke="black" d="M685.19,-1219.48C681.36,-1192.31 676.58,-1158.34 672.62,-1130.29"/>
<polygon fill="black" stroke="black" points="676.07,-1129.67 671.21,-1120.25 669.14,-1130.64 676.07,-1129.67"/>
</g>
<!-- C17 -->
<g id="node23" class="node">
<title>C17</title>
<ellipse fill="none" stroke="black" cx="499" cy="-901.98" rx="61.54" ry="61.54"/>
<text text-anchor="middle" x="499" y="-905.78" font-family="Georgia" font-size="14.00">RELEASE</text>
<text text-anchor="middle" x="499" y="-890.78" font-family="Georgia" font-size="14.00">RESET</text>
</g>
<!-- C16&#45;&gt;C17 -->
<g id="edge25" class="edge">
<title>C16&#45;&gt;C17</title>
<path fill="none" stroke="black" d="M631.18,-1044.22C612.65,-1027.4 589.54,-1005.77 570,-985.42 561.62,-976.69 552.98,-967.17 544.75,-957.8"/>
<polygon fill="black" stroke="black" points="547.15,-955.23 537.94,-949.98 541.87,-959.82 547.15,-955.23"/>
</g>
<!-- C17&#45;&gt;C18 -->
<g id="edge26" class="edge">
<title>C17&#45;&gt;C18</title>
<path fill="none" stroke="black" d="M522.54,-844.87C533.64,-818.39 546.83,-786.96 557.77,-760.89"/>
<polygon fill="black" stroke="black" points="561.05,-762.12 561.69,-751.54 554.59,-759.41 561.05,-762.12"/>
</g>
<!-- C19 -->
<g id="node25" class="node">
<title>C19</title>
<ellipse fill="none" stroke="black" cx="580" cy="-521.78" rx="49.49" ry="49.49"/>
<text text-anchor="middle" x="580" y="-525.58" font-family="Georgia" font-size="14.00">WAIT</text>
<text text-anchor="middle" x="580" y="-510.58" font-family="Georgia" font-size="14.00">ABIST2</text>
</g>
<!-- C18&#45;&gt;C19 -->
<g id="edge27" class="edge">
<title>C18&#45;&gt;C19</title>
<path fill="none" stroke="black" d="M580,-658.73C580,-635.17 580,-606.43 580,-581.46"/>
<polygon fill="black" stroke="black" points="583.5,-581.37 580,-571.37 576.5,-581.37 583.5,-581.37"/>
</g>
<!-- C110 -->
<g id="node26" class="node">
<title>C110</title>
<ellipse fill="none" stroke="black" cx="580" cy="-366.84" rx="45.49" ry="45.49"/>
<text text-anchor="middle" x="580" y="-363.14" font-family="Georgia" font-size="14.00">ABIST2</text>
</g>
<!-- C19&#45;&gt;C110 -->
<g id="edge28" class="edge">
<title>C19&#45;&gt;C110</title>
<path fill="none" stroke="black" d="M580,-471.97C580,-456.34 580,-438.92 580,-422.88"/>
<polygon fill="black" stroke="black" points="583.5,-422.56 580,-412.56 576.5,-422.56 583.5,-422.56"/>
</g>
<!-- C111 -->
<g id="node27" class="node">
<title>C111</title>
<ellipse fill="none" stroke="black" cx="580" cy="-232.31" rx="53.07" ry="53.07"/>
<text text-anchor="middle" x="580" y="-236.11" font-family="Georgia" font-size="14.00">ASSERT</text>
<text text-anchor="middle" x="580" y="-221.11" font-family="Georgia" font-size="14.00">FS0B</text>
</g>
<!-- C110&#45;&gt;C111 -->
<g id="edge29" class="edge">
<title>C110&#45;&gt;C111</title>
<path fill="none" stroke="black" d="M580,-321.34C580,-313.13 580,-304.41 580,-295.78"/>
<polygon fill="black" stroke="black" points="583.5,-295.72 580,-285.72 576.5,-295.72 583.5,-295.72"/>
</g>
<!-- C112 -->
<g id="node28" class="node">
<title>C112</title>
<ellipse fill="none" stroke="black" cx="580" cy="-79.64" rx="63.78" ry="63.78"/>
<text text-anchor="middle" x="580" y="-83.44" font-family="Georgia" font-size="14.00">NORMAL_</text>
<text text-anchor="middle" x="580" y="-68.44" font-family="Georgia" font-size="14.00">FS</text>
</g>
<!-- C111&#45;&gt;C112 -->
<g id="edge30" class="edge">
<title>C111&#45;&gt;C112</title>
<path fill="none" stroke="black" d="M573.55,-179.46C573.33,-170.92 573.23,-161.94 573.25,-153.02"/>
<polygon fill="black" stroke="black" points="576.75,-153.02 573.34,-142.99 569.75,-152.96 576.75,-153.02"/>
</g>
<!-- C112&#45;&gt;C111 -->
<g id="edge31" class="edge">
<title>C112&#45;&gt;C111</title>
<path fill="none" stroke="black" d="M586.66,-142.99C586.78,-151.71 586.78,-160.66 586.65,-169.38"/>
<polygon fill="black" stroke="black" points="583.15,-169.39 586.45,-179.46 590.15,-169.53 583.15,-169.39"/>
</g>
<!-- C20 -->
<g id="node29" class="node">
<title>C20</title>
<ellipse fill="none" stroke="black" cx="503" cy="-2050.13" rx="86.03" ry="86.03"/>
<text text-anchor="middle" x="503" y="-2061.43" font-family="Georgia" font-size="14.00">From any</text>
<text text-anchor="middle" x="503" y="-2046.43" font-family="Georgia" font-size="14.00">FS_state after</text>
<text text-anchor="middle" x="503" y="-2031.43" font-family="Georgia" font-size="14.00">&#39;WAIT_ABIST1&#39;</text>
</g>
<!-- C20&#45;&gt;C12 -->
<g id="edge32" class="edge">
<title>C20&#45;&gt;C12</title>
<path fill="none" stroke="black" d="M503,-1963.63C503,-1955.04 503,-1946.38 503,-1937.98"/>
<polygon fill="black" stroke="black" points="506.5,-1937.87 503,-1927.87 499.5,-1937.87 506.5,-1937.87"/>
</g>
<!-- C21 -->
<g id="node30" class="node">
<title>C21</title>
<ellipse fill="none" stroke="black" cx="510" cy="-1075.16" rx="53.07" ry="53.07"/>
<text text-anchor="middle" x="510" y="-1078.96" font-family="Georgia" font-size="14.00">ASSERT</text>
<text text-anchor="middle" x="510" y="-1063.96" font-family="Georgia" font-size="14.00">RSTB</text>
</g>
<!-- C21&#45;&gt;C17 -->
<g id="edge33" class="edge">
<title>C21&#45;&gt;C17</title>
<path fill="none" stroke="black" d="M506.64,-1021.87C505.67,-1006.79 504.6,-990.07 503.57,-974.06"/>
<polygon fill="black" stroke="black" points="507.03,-973.41 502.9,-963.65 500.05,-973.86 507.03,-973.41"/>
</g>
<!-- C22 -->
<g id="node31" class="node">
<title>C22</title>
<ellipse fill="none" stroke="black" cx="521" cy="-1268.85" rx="103.89" ry="103.89"/>
<text text-anchor="middle" x="521" y="-1280.15" font-family="Georgia" font-size="14.00">From anyFS_state</text>
<text text-anchor="middle" x="521" y="-1265.15" font-family="Georgia" font-size="14.00">after &#39;ABIST1&#39;</text>
<text text-anchor="middle" x="521" y="-1250.15" font-family="Georgia" font-size="14.00">exclude &#39;PGOOD&#39;</text>
</g>
<!-- C22&#45;&gt;C21 -->
<g id="edge34" class="edge">
<title>C22&#45;&gt;C21</title>
<path fill="none" stroke="black" d="M515.1,-1164.99C514.58,-1156.02 514.07,-1147.14 513.59,-1138.66"/>
<polygon fill="black" stroke="black" points="517.07,-1138.31 513,-1128.52 510.08,-1138.71 517.07,-1138.31"/>
</g>
</g>
</svg>
